<?xml version="1.0" encoding="UTF-8" standalone="no" ?>
<!DOCTYPE svg PUBLIC "-//W3C//DTD SVG 1.1//EN" "http://www.w3.org/Graphics/SVG/1.1/DTD/svg11.dtd">
<svg xmlns="http://www.w3.org/2000/svg" xmlns:xlink="http://www.w3.org/1999/xlink" version="1.1" width="267" height="85" viewBox="0 0 267 85" xml:space="preserve">
<desc>Created with Fabric.js 3.6.3</desc>
<defs>
</defs>
<g transform="matrix(1 0 0 1 133.53 42.75)"  >
<g style=""   >
		<g transform="matrix(2.47 0 0 0.79 0 0)"  >
<polygon style="stroke: rgb(0,22,12); stroke-width: 8; stroke-dasharray: none; stroke-linecap: butt; stroke-dashoffset: 0; stroke-linejoin: miter; stroke-miterlimit: 4; fill: rgb(0,22,12); fill-rule: nonzero; opacity: 1;"  points="-50,-50 -50,50 50,50 50,-50 " />
</g>
		<g transform="matrix(1 0 0 1 -0.97 1.65)"  >
<g style=""   >
		<g transform="matrix(1 0 0 1 -90.32 -1.82)"  >
<path style="stroke: none; stroke-width: 1; stroke-dasharray: none; stroke-linecap: butt; stroke-dashoffset: 0; stroke-linejoin: miter; stroke-miterlimit: 4; fill: rgb(0,200,111); fill-rule: nonzero; opacity: 1;"  transform=" translate(-36.18, -36.18)" d="M 17.067 0 h 38.235 a 17.037 17.037 0 0 1 17.066 17.063 v 38.242 a 17.027 17.027 0 0 1 -17.066 17.063 H 17.067 C 7.629 72.368 0 64.744 0 55.305 V 17.079 C 0 7.624 7.614 0 17.067 0 z" stroke-linecap="round" />
</g>
		<g transform="matrix(1 0 0 1 -102.9 -3.95)"  >
<path style="stroke: none; stroke-width: 1; stroke-dasharray: none; stroke-linecap: butt; stroke-dashoffset: 0; stroke-linejoin: miter; stroke-miterlimit: 4; fill: rgb(11,17,28); fill-rule: nonzero; opacity: 1;"  transform=" translate(-23.6, -34.04)" d="M 34.834 37.898 c -0.82 5.278 -5.824 9.068 -11.983 9.068 c -7.447 0 -12.862 -5.368 -12.862 -12.797 c 0 -0.917 0.091 -5.654 3.701 -9.248 c 1.638 -1.625 3.338 -2.361 4.126 -2.707 c 1.835 -0.782 3.7 -1.098 14.94 -1.098 h 0.637 c 1.274 1.58 2.548 3.158 3.822 4.722 c -3.7 -0.015 -8.782 0.06 -14.227 0.361 c -1.001 0.06 -2.503 0.165 -3.99 1.143 c -2.062 1.353 -3.32 3.79 -3.32 6.812 c 0 4.662 3.048 7.955 7.31 7.955 c 3.049 0 5.794 -2.075 6.537 -4.902 l 5.309 0.691 z" stroke-linecap="round" />
</g>
		<g transform="matrix(1 0 0 1 -78.56 -9.56)"  >
<path style="stroke: none; stroke-width: 1; stroke-dasharray: none; stroke-linecap: butt; stroke-dashoffset: 0; stroke-linejoin: miter; stroke-miterlimit: 4; fill: rgb(11,17,28); fill-rule: nonzero; opacity: 1;"  transform=" translate(-47.94, -28.45)" d="M 41.887 36.259 c 0.197 3.323 3.291 5.88 7.113 5.88 c 4.536 0 7.797 -3.354 7.797 -7.955 c 0 -2.797 -1.153 -5.113 -3.05 -6.511 c -1.38 -1.023 -2.805 -1.248 -4.565 -1.444 c -2.836 -0.316 -6.886 -0.586 -11.967 -0.36 c -1.274 -1.581 -2.547 -3.16 -3.822 -4.723 a 376.08 376.08 0 0 1 7.16 0 c 4.155 0.03 6.248 0.106 7.31 0.15 c 1.805 0.076 2.7 0.121 3.018 0.151 c 1.198 0.166 5.658 0.797 8.797 4.587 c 2.564 3.097 2.806 6.706 2.806 8.15 c 0 7.414 -5.581 12.797 -13.347 12.797 c -8.13 0 -13.514 -6.045 -12.726 -14.406 h 12.938 v 3.7 l -7.462 -0.016 z M 53.202 20.8 c -0.303 -0.105 -0.713 -0.24 -1.213 -0.376 c -0.273 -0.075 -0.486 -0.135 -0.759 -0.18 c -0.758 -0.15 -1.365 -0.165 -2.123 -0.18 c -0.228 0 -0.531 -0.016 -0.91 0 V 9.913 h 5.005 v 10.886 z" stroke-linecap="round" />
</g>
		<g transform="matrix(1 0 0 1 -83.57 16.39)"  >
<path style="stroke: rgb(11,17,28); stroke-width: 2; stroke-dasharray: none; stroke-linecap: butt; stroke-dashoffset: 0; stroke-linejoin: miter; stroke-miterlimit: 4; fill: rgb(11,17,28); fill-rule: nonzero; opacity: 1;"  transform=" translate(-42.93, -54.4)" d="M 37.458 53.785 c 0.076 0.376 0.47 2.226 2.29 3.309 c 0 0 1.35 0.722 3.049 0.737 c 0.197 0 2.79 -0.09 4.49 -2 c 1.289 -1.46 1.38 -3.188 1.41 -3.91 c 0.015 -0.196 0 -0.21 -0.03 -2.06 c -0.015 -0.948 -0.03 -1.715 -0.03 -2.226 c 0.637 0.06 1.41 0.075 2.305 0 c 0.698 -0.06 1.32 -0.18 1.805 -0.3 v 4.571 c -0.015 0.752 -0.091 3.022 -1.547 5.218 c -1.077 1.639 -2.518 2.571 -3.322 3.007 a 10.865 10.865 0 0 1 -5.49 1.324 c -0.501 -0.03 -1.73 -0.12 -3.17 -0.662 a 9.876 9.876 0 0 1 -2.746 -1.594 a 9.9 9.9 0 0 1 -2.305 -2.707 a 8.726 8.726 0 0 1 -1.047 -2.767 c 1.441 0.015 2.882 0.045 4.338 0.06 z" stroke-linecap="round" />
</g>
		<g transform="matrix(1 0 0 1 -90.93 13.98)"  >
<path style="stroke: none; stroke-width: 1; stroke-dasharray: none; stroke-linecap: butt; stroke-dashoffset: 0; stroke-linejoin: miter; stroke-miterlimit: 4; fill: rgb(11,17,28); fill-rule: nonzero; opacity: 1;"  transform=" translate(-35.57, -51.99)" d="M 39.733 49.274 h -8.327 c -1.198 0 -2.169 1.113 -2.169 2.481 v 0.467 c 0 1.368 0.97 2.48 2.17 2.48 h 8.326 c 1.198 0 2.17 -1.112 2.17 -2.48 v -0.468 c -0.016 -1.368 -0.987 -2.48 -2.17 -2.48 z" stroke-linecap="round" />
</g>
		<g transform="matrix(1 0 0 1 41.91 18.21)"  >
<path style="stroke: none; stroke-width: 1; stroke-dasharray: none; stroke-linecap: butt; stroke-dashoffset: 0; stroke-linejoin: miter; stroke-miterlimit: 4; fill: none; fill-rule: evenodd; opacity: 1;"  transform=" translate(-168.41, -56.21)" d="M 83.951 37.071 h 168.928 v 38.282 H 83.951 z" stroke-linecap="round" />
</g>
		<g transform="matrix(1 0 0 1 40.89 8.24)"  >
<path style="stroke: none; stroke-width: 1; stroke-dasharray: none; stroke-linecap: butt; stroke-dashoffset: 0; stroke-linejoin: miter; stroke-miterlimit: 4; fill: rgb(255,255,255); fill-rule: nonzero; opacity: 1;"  transform=" translate(-167.4, -46.24)" d="M 102.763 48.522 c -0.377 3.929 -4.034 6.795 -8.673 6.795 c -5.349 0 -9.217 -3.807 -9.217 -9.07 c 0 -5.248 3.868 -9.07 9.187 -9.07 c 4.593 0 8.22 2.882 8.658 6.886 l -4.714 0.5 a 3.875 3.875 0 0 0 -3.778 -3.033 c -2.523 0 -4.246 1.911 -4.246 4.702 c 0 2.79 1.738 4.702 4.216 4.702 c 1.813 0 3.4 -1.259 3.793 -2.988 l 4.774 0.576 z m 2.101 6.204 V 37.784 h 5.122 v 6.203 h 5.636 v -6.203 h 5.122 v 16.942 h -5.122 v -6.75 h -5.636 v 6.75 h -5.122 z m 35.266 0 h -5.349 l -0.725 -2.548 h -5.863 l -0.725 2.548 h -5.35 l 5.274 -16.942 h 7.45 l 5.288 16.942 z m -10.94 -6.158 h 3.884 l -1.95 -6.461 l -1.934 6.46 z m 12.345 6.158 V 37.784 h 5.122 v 12.589 h 6.18 v 4.353 h -11.302 z m 13.282 0 V 37.784 h 5.122 v 12.589 h 6.18 v 4.353 h -11.302 z m 25.55 -4.02 v 4.02 h -12.284 V 37.784 h 12.043 v 4.004 h -7.117 v 2.579 h 6.18 v 3.458 h -6.18 v 2.881 z m 13.191 -2.153 V 37.784 h 4.76 v 16.942 h -5.334 l -5.772 -10.739 v 10.739 h -4.759 V 37.784 h 5.333 z m 16.168 -0.622 v -2.988 h 9.187 c 0.62 6.006 -3.189 10.359 -9.006 10.359 c -5.485 0 -9.474 -3.807 -9.474 -9.07 c 0 -5.248 3.99 -9.07 9.474 -9.07 c 4.125 0 7.42 2.366 8.205 5.673 l -4.714 0.88 c -0.408 -1.275 -1.844 -2.2 -3.506 -2.2 c -2.523 0 -4.336 1.957 -4.336 4.702 c 0 2.715 1.888 4.702 4.548 4.702 c 2.07 0 3.792 -1.305 3.943 -3.034 h -4.321 v 0.046 z m 23.647 2.775 v 4.02 h -12.285 V 37.784 h 12.043 v 4.004 h -7.117 v 2.579 h 6.18 v 3.458 h -6.18 v 2.881 z m 1.48 -1.562 h 4.428 c 0.03 1.441 1.36 2.503 3.203 2.503 c 1.51 0 2.478 -0.713 2.478 -1.654 c 0 -2.987 -10.018 -0.045 -10.018 -6.976 c 0 -3.504 2.992 -5.824 7.238 -5.824 s 7.313 2.487 7.328 5.915 h -4.261 c 0 -1.305 -1.254 -2.245 -2.916 -2.245 c -1.436 0 -2.433 0.637 -2.433 1.532 c 0 2.836 10.018 -0.046 10.018 6.886 c 0 3.579 -3.128 6.036 -7.585 6.036 c -4.337 0 -7.48 -2.609 -7.48 -6.173 z" stroke-linecap="round" />
</g>
		<g transform="matrix(1 0 0 1 -22 -13.5)"  >
<path style="stroke: none; stroke-width: 1; stroke-dasharray: none; stroke-linecap: butt; stroke-dashoffset: 0; stroke-linejoin: miter; stroke-miterlimit: 4; fill: rgb(255,255,255); fill-rule: evenodd; opacity: 1;"  transform=" translate(-104.5, -24.5)" d="M 121.041 26.655 a 0.602 0.602 0 0 1 -0.245 0.364 a 0.942 0.942 0 0 1 -0.367 0.152 c -0.245 0.091 -0.52 0.152 -0.735 0.273 c -0.275 0.122 -0.52 0.183 -0.734 0.274 c -0.276 0.121 -0.551 0.182 -0.796 0.273 a 4.76 4.76 0 0 0 -0.55 0.303 a 1.957 1.957 0 0 0 -0.399 0.456 c -0.122 0.182 -0.153 0.425 -0.153 0.728 c 0 0.577 0.153 1.002 0.429 1.336 c 0.275 0.273 0.795 0.425 1.56 0.425 c 0.766 0 1.286 -0.152 1.561 -0.425 c 0.276 -0.304 0.429 -0.729 0.429 -1.275 v -2.884 z m -2.02 -6.162 c 1.377 0 2.356 0.273 3.03 0.789 c 0.642 0.546 0.948 1.214 0.948 2.003 v 6.831 c 0 0.273 -0.03 0.577 -0.153 0.91 a 2.214 2.214 0 0 1 -0.581 0.911 a 3.591 3.591 0 0 1 -1.224 0.698 c -0.52 0.183 -1.194 0.274 -2.02 0.274 c -0.826 0 -1.5 -0.091 -2.02 -0.274 a 3.591 3.591 0 0 1 -1.224 -0.698 c -0.306 -0.273 -0.52 -0.577 -0.581 -0.91 c -0.092 -0.365 -0.154 -0.638 -0.154 -0.911 v -1.123 c 0 -0.577 0.154 -1.124 0.429 -1.61 a 2.485 2.485 0 0 1 1.285 -1.001 c 0.276 -0.122 0.582 -0.182 0.949 -0.304 c 0.367 -0.121 0.704 -0.243 1.071 -0.364 s 0.643 -0.243 0.857 -0.304 c 0.245 -0.09 0.398 -0.151 0.46 -0.151 a 0.908 0.908 0 0 1 0.244 -0.122 c 0.092 -0.03 0.184 -0.152 0.306 -0.243 c 0.092 -0.121 0.153 -0.242 0.245 -0.364 c 0.092 -0.152 0.092 -0.303 0.092 -0.516 v -0.425 c 0 -0.152 -0.031 -0.304 -0.092 -0.455 c -0.03 -0.152 -0.153 -0.304 -0.306 -0.425 c -0.153 -0.152 -0.367 -0.243 -0.643 -0.365 c -0.245 -0.09 -0.581 -0.121 -0.98 -0.121 c -0.795 0 -1.285 0.152 -1.56 0.455 a 1.534 1.534 0 0 0 -0.398 1.002 c 0 0.091 -0.092 0.152 -0.153 0.152 h -1.683 c -0.092 0 -0.153 -0.091 -0.153 -0.152 v -0.395 c 0 -0.394 0.092 -0.728 0.245 -1.092 c 0.153 -0.365 0.398 -0.638 0.704 -0.911 a 3.204 3.204 0 0 1 1.254 -0.577 c 0.52 -0.091 1.102 -0.212 1.806 -0.212 z m -27.054 6.162 a 0.598 0.598 0 0 1 -0.245 0.364 a 0.936 0.936 0 0 1 -0.367 0.152 c -0.245 0.091 -0.52 0.152 -0.734 0.273 c -0.276 0.122 -0.52 0.183 -0.735 0.274 c -0.275 0.121 -0.55 0.182 -0.796 0.273 c -0.183 0.09 -0.367 0.182 -0.55 0.303 a 1.954 1.954 0 0 0 -0.398 0.456 c -0.123 0.182 -0.153 0.425 -0.153 0.728 c 0 0.577 0.153 1.002 0.428 1.336 c 0.276 0.273 0.796 0.425 1.561 0.425 c 0.765 0 1.285 -0.152 1.622 -0.425 c 0.275 -0.304 0.428 -0.729 0.428 -1.275 l -0.06 -2.884 z m -1.958 -6.162 c 1.377 0 2.356 0.273 3.03 0.789 c 0.642 0.546 0.948 1.214 0.948 2.003 v 6.831 c 0 0.273 -0.03 0.577 -0.153 0.91 c -0.092 0.365 -0.306 0.638 -0.581 0.911 a 3.587 3.587 0 0 1 -1.225 0.698 c -0.52 0.183 -1.193 0.274 -2.02 0.274 c -0.826 0 -1.499 -0.091 -2.02 -0.274 a 3.586 3.586 0 0 1 -1.223 -0.698 c -0.306 -0.273 -0.52 -0.577 -0.582 -0.91 a 2.705 2.705 0 0 1 -0.153 -0.911 v -1.123 c 0 -0.577 0.153 -1.124 0.429 -1.61 a 2.485 2.485 0 0 1 1.285 -1.001 c 0.275 -0.122 0.581 -0.182 0.949 -0.304 c 0.367 -0.121 0.703 -0.243 1.07 -0.364 c 0.368 -0.121 0.643 -0.243 0.858 -0.304 c 0.244 -0.09 0.397 -0.151 0.459 -0.151 c 0.092 0 0.153 -0.091 0.245 -0.122 c 0.122 -0.03 0.183 -0.152 0.306 -0.243 c 0.122 -0.121 0.153 -0.242 0.244 -0.364 c 0.092 -0.152 0.123 -0.303 0.123 -0.516 v -0.425 a 0.838 0.838 0 0 0 -0.123 -0.455 c -0.03 -0.152 -0.153 -0.304 -0.306 -0.425 c -0.153 -0.152 -0.367 -0.243 -0.642 -0.365 c -0.245 -0.09 -0.582 -0.121 -0.98 -0.121 c -0.795 0 -1.285 0.152 -1.56 0.455 a 1.534 1.534 0 0 0 -0.398 1.002 c 0 0.091 -0.092 0.152 -0.153 0.152 h -1.684 c -0.091 0 -0.153 -0.091 -0.153 -0.152 v -0.395 c 0 -0.394 0.092 -0.728 0.245 -1.092 c 0.153 -0.365 0.398 -0.638 0.704 -0.911 c 0.306 -0.243 0.735 -0.455 1.255 -0.577 c 0.459 -0.091 1.102 -0.212 1.806 -0.212 z m 22.983 0 h 1.132 c 0.123 0 0.153 0.121 0.153 0.182 l -0.397 1.457 c 0 0.091 -0.092 0.121 -0.153 0.121 h -0.766 c -0.428 0 -0.734 0.03 -1.01 0.152 c -0.244 0.122 -0.459 0.243 -0.581 0.395 c -0.153 0.152 -0.245 0.303 -0.275 0.455 c -0.031 0.152 -0.031 0.304 -0.031 0.455 v 9.077 c 0 0.091 -0.092 0.152 -0.153 0.152 h -1.683 c -0.092 0 -0.153 -0.091 -0.153 -0.152 v -9.471 c 0 -0.152 0.03 -0.425 0.122 -0.729 c 0.03 -0.303 0.245 -0.637 0.52 -0.94 c 0.276 -0.304 0.674 -0.578 1.194 -0.82 c 0.398 -0.213 1.163 -0.334 2.081 -0.334 z m -5.692 9.228 v 0.425 c 0 0.182 -0.03 0.425 -0.123 0.729 c -0.03 0.303 -0.245 0.637 -0.52 0.94 c -0.275 0.304 -0.673 0.578 -1.194 0.82 c -0.55 0.243 -1.254 0.365 -2.203 0.365 c -0.949 0 -1.683 -0.122 -2.203 -0.365 c -0.551 -0.242 -0.95 -0.516 -1.194 -0.82 a 2.423 2.423 0 0 1 -0.52 -0.94 c -0.03 -0.304 -0.123 -0.547 -0.123 -0.729 v -9.441 c 0 -0.091 0.092 -0.152 0.153 -0.152 h 1.684 c 0.091 0 0.153 0.091 0.153 0.152 V 29.6 c 0 0.303 0.03 0.516 0.091 0.668 c 0.031 0.151 0.123 0.364 0.245 0.455 c 0.123 0.152 0.306 0.273 0.582 0.395 c 0.245 0.121 0.581 0.151 1.07 0.151 c 0.43 0 0.827 -0.03 1.103 -0.151 c 0.275 -0.122 0.459 -0.243 0.581 -0.365 c 0.153 -0.151 0.245 -0.303 0.275 -0.455 c 0.031 -0.152 0.123 -0.304 0.123 -0.698 v -8.865 c 0 -0.09 0.092 -0.151 0.153 -0.151 h 1.683 c 0.092 0 0.153 0.09 0.153 0.151 l 0.03 8.986 z M 95.793 16 h 1.683 c 0.092 0 0.153 0.09 0.153 0.152 v 16.666 c 0 0.09 -0.092 0.151 -0.153 0.151 h -1.683 c -0.092 0 -0.153 -0.09 -0.153 -0.151 V 16.152 c 0 -0.061 0.06 -0.152 0.153 -0.152 z" stroke-linecap="round" />
</g>
</g>
</g>
</g>
</g>
</svg>